<mxfile host="app.diagrams.net" modified="2024-07-13T13:41:28.522Z" agent="Mozilla/5.0 (X11; Linux x86_64) AppleWebKit/537.36 (KHTML, like Gecko) Chrome/123.0.0.0 Safari/537.36" etag="KUq5JNqKiFeX0MwOqeij" version="24.6.5" type="device">
  <diagram name="Page-1" id="io6RotXu2FhTArvMsV76">
    <mxGraphModel dx="811" dy="454" grid="1" gridSize="10" guides="1" tooltips="1" connect="1" arrows="1" fold="1" page="1" pageScale="1" pageWidth="850" pageHeight="1100" math="0" shadow="0">
      <root>
        <mxCell id="0" />
        <mxCell id="1" parent="0" />
        <mxCell id="HHxiQkbmgcWOgYZcKdLH-5" value="" style="edgeStyle=orthogonalEdgeStyle;rounded=0;orthogonalLoop=1;jettySize=auto;html=1;" edge="1" parent="1" source="HHxiQkbmgcWOgYZcKdLH-1" target="HHxiQkbmgcWOgYZcKdLH-2">
          <mxGeometry relative="1" as="geometry" />
        </mxCell>
        <mxCell id="HHxiQkbmgcWOgYZcKdLH-1" value="Sensors" style="shape=hexagon;perimeter=hexagonPerimeter2;whiteSpace=wrap;html=1;fixedSize=1;" vertex="1" parent="1">
          <mxGeometry x="420" y="70" width="120" height="80" as="geometry" />
        </mxCell>
        <mxCell id="HHxiQkbmgcWOgYZcKdLH-8" value="" style="edgeStyle=orthogonalEdgeStyle;rounded=0;orthogonalLoop=1;jettySize=auto;html=1;" edge="1" parent="1" source="HHxiQkbmgcWOgYZcKdLH-2" target="HHxiQkbmgcWOgYZcKdLH-3">
          <mxGeometry relative="1" as="geometry" />
        </mxCell>
        <mxCell id="HHxiQkbmgcWOgYZcKdLH-2" value="Theft controller" style="shape=hexagon;perimeter=hexagonPerimeter2;whiteSpace=wrap;html=1;fixedSize=1;" vertex="1" parent="1">
          <mxGeometry x="420" y="210" width="120" height="80" as="geometry" />
        </mxCell>
        <mxCell id="HHxiQkbmgcWOgYZcKdLH-11" value="" style="edgeStyle=orthogonalEdgeStyle;rounded=0;orthogonalLoop=1;jettySize=auto;html=1;" edge="1" parent="1" source="HHxiQkbmgcWOgYZcKdLH-3" target="HHxiQkbmgcWOgYZcKdLH-4">
          <mxGeometry relative="1" as="geometry" />
        </mxCell>
        <mxCell id="HHxiQkbmgcWOgYZcKdLH-3" value="Lock manager" style="shape=hexagon;perimeter=hexagonPerimeter2;whiteSpace=wrap;html=1;fixedSize=1;" vertex="1" parent="1">
          <mxGeometry x="230" y="210" width="120" height="80" as="geometry" />
        </mxCell>
        <mxCell id="HHxiQkbmgcWOgYZcKdLH-12" value="" style="edgeStyle=orthogonalEdgeStyle;rounded=0;orthogonalLoop=1;jettySize=auto;html=1;" edge="1" parent="1" source="HHxiQkbmgcWOgYZcKdLH-4" target="HHxiQkbmgcWOgYZcKdLH-1">
          <mxGeometry relative="1" as="geometry" />
        </mxCell>
        <mxCell id="HHxiQkbmgcWOgYZcKdLH-4" value="Alarm Service" style="shape=hexagon;perimeter=hexagonPerimeter2;whiteSpace=wrap;html=1;fixedSize=1;" vertex="1" parent="1">
          <mxGeometry x="230" y="70" width="120" height="80" as="geometry" />
        </mxCell>
        <mxCell id="HHxiQkbmgcWOgYZcKdLH-6" value="Sends lock status" style="text;html=1;align=left;verticalAlign=middle;resizable=0;points=[];autosize=1;strokeColor=none;fillColor=none;fontColor=#003366;" vertex="1" parent="1">
          <mxGeometry x="488" y="156" width="120" height="30" as="geometry" />
        </mxCell>
        <mxCell id="HHxiQkbmgcWOgYZcKdLH-7" value="Geometric data {lat: f32, lng: f32}" style="text;html=1;align=left;verticalAlign=middle;resizable=0;points=[];autosize=1;strokeColor=none;fillColor=none;fontColor=#003366;" vertex="1" parent="1">
          <mxGeometry x="488" y="172" width="200" height="30" as="geometry" />
        </mxCell>
        <mxCell id="HHxiQkbmgcWOgYZcKdLH-9" value="Monitoring" style="text;html=1;align=center;verticalAlign=middle;resizable=0;points=[];autosize=1;strokeColor=none;fillColor=none;fontColor=#6600CC;" vertex="1" parent="1">
          <mxGeometry x="440" y="40" width="80" height="30" as="geometry" />
        </mxCell>
        <mxCell id="HHxiQkbmgcWOgYZcKdLH-10" value="Control" style="text;html=1;align=center;verticalAlign=middle;resizable=0;points=[];autosize=1;strokeColor=none;fillColor=none;fontColor=#6600CC;" vertex="1" parent="1">
          <mxGeometry x="260" y="290" width="60" height="30" as="geometry" />
        </mxCell>
        <mxCell id="HHxiQkbmgcWOgYZcKdLH-13" value="Checks status of `&lt;font color=&quot;#6600cc&quot;&gt;&lt;b&gt;isLock&lt;/b&gt;&lt;/font&gt;`" style="text;html=1;align=center;verticalAlign=middle;resizable=0;points=[];autosize=1;strokeColor=none;fillColor=none;" vertex="1" parent="1">
          <mxGeometry x="70" y="235" width="160" height="30" as="geometry" />
        </mxCell>
        <mxCell id="HHxiQkbmgcWOgYZcKdLH-14" value="Software&lt;br&gt;Service" style="text;html=1;align=center;verticalAlign=middle;resizable=0;points=[];autosize=1;strokeColor=none;fillColor=none;" vertex="1" parent="1">
          <mxGeometry x="255" y="30" width="70" height="40" as="geometry" />
        </mxCell>
        <mxCell id="HHxiQkbmgcWOgYZcKdLH-15" value="Hardware based&lt;div&gt;service (Used RPI)&lt;/div&gt;" style="text;html=1;align=center;verticalAlign=middle;resizable=0;points=[];autosize=1;strokeColor=none;fillColor=none;" vertex="1" parent="1">
          <mxGeometry x="420" y="290" width="120" height="40" as="geometry" />
        </mxCell>
        <mxCell id="HHxiQkbmgcWOgYZcKdLH-17" value="" style="edgeStyle=orthogonalEdgeStyle;rounded=0;orthogonalLoop=1;jettySize=auto;html=1;dashed=1;endArrow=none;endFill=0;" edge="1" parent="1" source="HHxiQkbmgcWOgYZcKdLH-16" target="HHxiQkbmgcWOgYZcKdLH-4">
          <mxGeometry relative="1" as="geometry" />
        </mxCell>
        <mxCell id="HHxiQkbmgcWOgYZcKdLH-16" value="&lt;b&gt;Features&lt;/b&gt;: &lt;font style=&quot;font-size: 10px;&quot;&gt;Software Notification, E-mail, Message to contact and Physical Security Alarm&lt;/font&gt;" style="rounded=1;whiteSpace=wrap;html=1;align=left;fillColor=#66FF66;" vertex="1" parent="1">
          <mxGeometry x="40" y="120" width="160" height="50" as="geometry" />
        </mxCell>
      </root>
    </mxGraphModel>
  </diagram>
</mxfile>
